#!OML:ASF H:\Terrain\Patient Classification 1\Walking\liu\liu.ASF
:FULLY-SPECIFIED
:DEGREES
254
root 9.193 17.0621 26.3141 10.4093 -4.03535 -6.10331
lowerback -5.05358 2.74397 1.67743
upperback -1.66767 3.52184 3.91879
thorax 0.965956 1.7684 3.29626
lowerneck -18.053 -3.32302 -12.2939
upperneck 22.4079 -3.90775 11.153
head 10.6438 -1.53435 5.56446
rclavicle -6.01324e-015 -5.56597e-015
rhumerus -20.5216 25.849 -86.224
rradius 47.3047
rwrist -21.0213
rhand -29.3035 -22.518
rfingers 7.12502
rthumb -2.64485 -52.4813
lclavicle -6.01324e-015 -5.56597e-015
lhumerus -54.1271 -6.8318 88.4001
lradius 21.4826
lwrist -0.523304
lhand -12.2737 -22.8459
lfingers 7.12502
lthumb 13.7932 6.67681
rfemur 6.29293 2.75479 30.4478
rtibia 12.3317
rfoot -14.0125 5.39763
rtoes -20.442
lfemur -44.8441 1.70503 -12.3291
ltibia 21.9307
lfoot -13.9504 12.5717
ltoes -14.7574
255
root 9.21272 17.0263 26.5686 10.3351 -4.31681 -6.38801
lowerback -5.30591 2.87985 1.95963
upperback -1.29767 3.65996 3.93132
thorax 1.49842 1.8345 3.18805
lowerneck -18.7487 -3.36698 -11.9629
upperneck 22.409 -3.92438 10.9077
head 10.769 -1.52396 5.41554
rclavicle -3.75703e-014 -2.50469e-014
rhumerus -18.8829 26.5528 -85.6464
rradius 47.9668
rwrist -21.4454
rhand -29.3656 -22.2335
rfingers 7.12502
rthumb -2.70483 -52.1961
lclavicle -3.75703e-014 -2.50469e-014
lhumerus -54.1368 -5.66294 86.7145
lradius 20.6855
lwrist -1.40506
lhand -12.3059 -23.0415
lfingers 7.12502
lthumb 13.7622 6.48329
rfemur 8.13331 2.19396 30.3736
rtibia 10.6771
rfoot -12.9568 6.25711
rtoes -20.5783
lfemur -44.9176 0.0576333 -10.5794
ltibia 20.188
lfoot -14.045 13.2135
ltoes -12.711
256
root 9.22834 16.9887 26.808 10.2091 -4.58466 -6.46824
lowerback -4.98443 3.24285 1.9865
upperback -0.862829 4.13816 3.97238
thorax 1.74691 2.07216 3.24257
lowerneck -20.4008 -3.8855 -12.4978
upperneck 22.5355 -4.33803 11.0542
head 11.2117 -1.70136 5.51516
rclavicle -4.37326e-014 -3.18055e-015
rhumerus -16.9373 26.8393 -84.294
rradius 48.5864
rwrist -21.9231
rhand -29.6296 -22.4979
rfingers 7.12502
rthumb -2.95971 -52.4571
lclavicle -4.37326e-014 -3.18055e-015
lhumerus -53.4517 -4.6293 85.1807
lradius 19.5887
lwrist -2.94354
lhand -12.2395 -23.1556
lfingers 7.12502
lthumb 13.8262 6.36488
rfemur 10.0639 2.49019 30.2889
rtibia 8.87081
rfoot -11.9436 5.96969
rtoes -21.5763
lfemur -45.0545 -1.51554 -9.09911
ltibia 18.833
lfoot -14.0156 14.1018
ltoes -10.241
257
root 9.24867 16.9541 27.0585 10.2746 -4.75436 -6.4643
lowerback -4.66302 3.28353 1.95727
upperback -1.84149 4.2535 3.95545
thorax 0.554003 2.13556 3.18568
lowerneck -17.2633 -3.52607 -12.7153
upperneck 21.859 -4.13154 11.1621
head 10.335 -1.68726 5.58223
rclavicle -3.36443e-014 -1.98785e-014
rhumerus -18.3622 27.2073 -84.9479
rradius 49.3957
rwrist -21.5788
rhand -30.1761 -22.3869
rfingers 7.12502
rthumb -3.4875 -52.3381
lclavicle -3.36443e-014 -1.98785e-014
lhumerus -56.0108 -3.39191 83.2244
lradius 18.8997
lwrist -5.01647
lhand -12.3343 -23.3895
lfingers 7.12502
lthumb 13.7348 6.1372
rfemur 11.9353 2.72548 30.0807
rtibia 6.69946
rfoot -10.5387 5.71297
rtoes -22.0843
lfemur -45.4143 -2.41693 -8.29736
ltibia 17.9137
lfoot -14.1367 14.7056
ltoes -10.1869
258
root 9.27261 16.9119 27.32 10.2195 -4.81149 -6.55322
lowerback -5.31865 3.52005 2.17733
upperback -0.401145 4.46311 3.84286
thorax 2.42172 2.23267 3.06898
lowerneck -21.3528 -4.28542 -12.4623
upperneck 22.2676 -4.75341 10.9507
head 11.3519 -1.87212 5.39495
rclavicle 6.7388e-014 6.52014e-014
rhumerus -14.2431 26.7897 -82.9429
rradius 49.5977
rwrist -21.1185
rhand -30.2087 -21.5182
rfingers 7.12502
rthumb -3.51899 -51.4689
lclavicle 6.7388e-014 6.52014e-014
lhumerus -53.5334 -1.82386 81.0036
lradius 17.5881
lwrist -7.56165
lhand -12.4524 -23.4135
lfingers 7.12502
lthumb 13.621 6.12085
rfemur 14.0854 2.85537 29.9733
rtibia 4.19171
rfoot -8.83044 5.6478
rtoes -22.585
lfemur -45.63 -2.64168 -8.0654
ltibia 17.4256
lfoot -13.8618 14.7439
ltoes -9.32976
259
root 9.2954 16.855 27.5772 9.98003 -4.79973 -6.81463
lowerback -5.43935 3.46975 2.40149
upperback -0.114912 4.36105 3.91222
thorax 2.80015 2.1822 3.03154
lowerneck -21.3119 -4.07336 -12.013
upperneck 21.9422 -4.53677 10.7633
head 11.1744 -1.75585 5.2676
rclavicle -2.33572e-014 2.0276e-014
rhumerus -13.1168 27.0635 -82.4932
rradius 50.0838
rwrist -20.5904
rhand -36.4463 -18.1114
rfingers 7.12502
rthumb -9.54041 -47.8754
lclavicle -2.33572e-014 2.0276e-014
lhumerus -53.6834 0.230655 78.4536
lradius 16.5022
lwrist -9.81082
lhand -12.8461 -23.8646
lfingers 7.12502
lthumb 13.2415 5.69482
rfemur 17.4007 2.91907 30.0932
rtibia 3.49861e-014
rfoot -6.271 5.46055
rtoes -23.1407
lfemur -45.7552 -2.49612 -7.96495
ltibia 17.4261
lfoot -13.4005 14.2168
ltoes -7.59605
